# xmcd
#
# Track frame offsets: 
#        182
#        15922
#        28552
#        40262
#        50967
#        64312
#        77752
#        89022
#        99627
#        112457
#        121847
#        133735
#
# Disc length: 1904 seconds
#
# Revision: 2
# Processed by: cddbd v1.5.2PL0 Copyright (c) Steve Scherf et al.
# Submitted via: ExactAudioCopy v1.0b3
#
DISCID=a9076e0c
DTITLE=Sonny James - The Best Of Sonny James
DYEAR=1991
DGENRE=Country
TTITLE0=Tie a Yellow Ribbon round the Old Oak Tree
TTITLE1=Don't keep me hangin' on
TTITLE2=Here comes honey again
TTITLE3=Empty arms
TTITLE4=Endlessly
TTITLE5=It's the little things
TTITLE6=Room in your heart
TTITLE7=I'll keep holding on (Just to your love)
TTITLE8=My love
TTITLE9=Behind the tear
TTITLE10=Born to be with you
TTITLE11=Heaven on earth
EXTD=
EXTT0=
EXTT1=
EXTT2=
EXTT3=
EXTT4=
EXTT5=
EXTT6=
EXTT7=
EXTT8=
EXTT9=
EXTT10=
EXTT11=
PLAYORDER=
